<?xml version="1.0" encoding="UTF-8" standalone="no"?>
<!-- Created with Inkscape (http://www.inkscape.org/) -->

<svg
   xmlns:dc="http://purl.org/dc/elements/1.1/"
   xmlns:cc="http://creativecommons.org/ns#"
   xmlns:rdf="http://www.w3.org/1999/02/22-rdf-syntax-ns#"
   xmlns:svg="http://www.w3.org/2000/svg"
   xmlns="http://www.w3.org/2000/svg"
   xmlns:sodipodi="http://sodipodi.sourceforge.net/DTD/sodipodi-0.dtd"
   xmlns:inkscape="http://www.inkscape.org/namespaces/inkscape"
   width="197.97755mm"
   height="133.57367mm"
   viewBox="0 0 197.97755 133.57367"
   version="1.1"
   id="svg5060"
   inkscape:version="0.92.4 (5da689c313, 2019-01-14)"
   sodipodi:docname="world with rings.svg">
  <defs
     id="defs5054" />
  <sodipodi:namedview
     id="base"
     pagecolor="#ffffff"
     bordercolor="#666666"
     borderopacity="1.0"
     inkscape:pageopacity="0.0"
     inkscape:pageshadow="2"
     inkscape:zoom="0.35"
     inkscape:cx="-94.440616"
     inkscape:cy="-55.975005"
     inkscape:document-units="mm"
     inkscape:current-layer="layer1"
     showgrid="false"
     inkscape:window-width="1920"
     inkscape:window-height="1017"
     inkscape:window-x="-8"
     inkscape:window-y="-8"
     inkscape:window-maximized="1"
     fit-margin-top="0"
     fit-margin-left="0"
     fit-margin-right="0"
     fit-margin-bottom="0" />
  <metadata
     id="metadata5057">
    <rdf:RDF>
      <cc:Work
         rdf:about="">
        <dc:format>image/svg+xml</dc:format>
        <dc:type
           rdf:resource="http://purl.org/dc/dcmitype/StillImage" />
        <dc:title></dc:title>
      </cc:Work>
    </rdf:RDF>
  </metadata>
  <g
     inkscape:label="Layer 1"
     inkscape:groupmode="layer"
     id="layer1"
     transform="translate(-7.9784843,-0.44960686)">
    <path
       inkscape:connector-curvature="0"
       d="m 80.544063,84.900139 c -1.355669,-0.637975 -2.791088,-1.27592 -4.146757,-1.913894 0.159441,1.116448 0.318972,2.153145 0.478473,3.26956 1.196168,-0.478474 2.472116,-0.877193 3.668284,-1.355666 z"
       id="path10"
       style="fill:#5b5b5f;fill-opacity:1;stroke-width:0.79745525" />
    <path
       inkscape:connector-curvature="0"
       d="m 166.58948,69.588997 c -0.31896,8.134044 -2.15311,16.028866 -5.42267,23.285688 1.51514,0.398751 2.95056,0.717716 4.38598,1.036692 4.14679,-9.569462 5.98093,-19.936371 5.4227,-30.223559 -3.18981,1.913892 -6.45937,3.907535 -9.88843,5.901179 z"
       id="path12"
       style="fill:#5b5b5f;fill-opacity:1;stroke-width:0.79745525" />
    <path
       inkscape:connector-curvature="0"
       d="m 149.12523,110.65794 c -5.98093,6.1404 -12.99853,10.92512 -20.89335,14.19472 -3.26956,1.35567 -6.61887,2.39237 -10.12765,3.18981 3.66828,-3.34931 7.09734,-8.13404 10.12765,-14.27444 1.3557,-2.79109 2.55187,-5.66193 3.58857,-8.77202 -1.35568,-0.47847 -2.79109,-0.95695 -4.22651,-1.43542 -0.95695,2.87084 -2.15315,5.66193 -3.34932,8.2138 -4.86448,10.12768 -11.24413,16.34783 -17.7035,17.544 V 96.144269 c 0.31897,0 0.55823,0 0.87719,0 -0.15943,-0.07986 -0.31896,-0.159435 -0.55822,-0.239305 -1.59492,0.637941 -3.18982,1.355668 -4.78474,1.993608 V 129.3183 c -2.472112,-0.47848 -4.944222,-1.59489 -7.336593,-3.50879 -3.588533,-2.79111 -6.858095,-7.09737 -9.728934,-12.67955 -1.196198,-2.31262 -2.312616,-4.86448 -3.269561,-7.49606 -1.43542,0.47847 -2.79112,0.95694 -4.226538,1.43542 1.036696,2.79108 2.232894,5.50242 3.508812,8.05429 2.791089,5.50242 5.98093,9.72896 9.409963,12.83902 -10.845382,-2.47211 -20.893319,-7.81507 -29.186864,-15.63011 -1.674641,0.47847 -3.269562,0.95695 -4.944203,1.43542 0.478474,0.47846 0.956947,0.95694 1.43542,1.43541 12.998527,12.52006 29.745087,18.81993 46.411898,18.81993 0,0 0,0 0,0 v 0 c 0,0 0,0 0,0 17.46426,0 34.8488,-6.77835 47.92707,-20.25534 0.63794,-0.63798 1.27591,-1.35568 1.9139,-2.07339 -1.59492,-0.39873 -3.18984,-0.87721 -4.86449,-1.27593 0.15944,0 0.0799,0.0799 0,0.23932 z"
       id="path14"
       style="fill:#5b5b5f;fill-opacity:1;stroke-width:0.79745525" />
    <path
       inkscape:connector-curvature="0"
       d="m 76.875779,86.255805 c -0.159441,-1.036695 -0.319002,-2.153112 -0.478473,-3.26956 -1.594921,-0.717694 -3.189841,-1.435418 -4.704982,-2.232864 0.239313,2.392366 0.558194,4.704981 0.877197,7.0176 1.435419,-0.478474 2.870838,-1.036702 4.306258,-1.515176 z"
       id="path16"
       style="fill:#5b5b5f;fill-opacity:1;stroke-width:0.79745525" />
    <path
       inkscape:connector-curvature="0"
       d="M 48.566111,95.187332 C 44.578825,87.292507 42.34596,78.600236 42.026987,69.509246 h 7.575821 C 45.3763,67.19663 41.389013,64.884015 37.640978,62.65115 c -0.797475,11.483357 1.355669,23.046434 6.459374,33.652597 1.116447,-0.239316 2.232894,-0.558229 3.349312,-0.877194 0.478473,-0.07986 0.797474,-0.159446 1.116447,-0.239315 z"
       id="path18"
       style="fill:#5b5b5f;fill-opacity:1;stroke-width:0.79745525" />
    <path
       inkscape:connector-curvature="0"
       d="m 46.333246,44.46917 c 1.036667,-2.551867 2.153115,-5.023983 3.508783,-7.41635 3.827786,1.116418 11.483357,3.030341 23.764188,4.306259 -1.116447,5.422706 -1.913893,11.084633 -2.312645,16.826312 1.435419,0.717695 2.870839,1.43542 4.306258,2.153114 0.319003,-6.459373 1.116448,-12.679524 2.392367,-18.580703 6.778374,0.558224 14.752948,1.036697 24.003413,1.036697 V 64.963766 H 85.328795 c 3.269562,1.51517 6.539124,2.95059 9.888436,4.465729 h 6.698629 v 2.87084 c 0.63797,0.239312 1.27594,0.558224 1.91389,0.797475 0.87723,0.318972 1.67467,0.717694 2.55187,1.036697 v -4.705012 h 10.6859 c 3.18982,-1.435419 6.29991,-2.950559 9.33022,-4.465729 H 106.54112 V 42.794499 c 9.33021,-0.07987 17.30478,-0.478473 24.08313,-1.036697 1.3557,6.299901 2.15315,12.998527 2.47211,20.016122 1.43542,-0.717694 2.95059,-1.515139 4.30627,-2.232864 -0.31898,-6.220151 -1.11643,-12.360552 -2.39237,-18.181981 12.28083,-1.355669 19.9364,-3.189841 23.76418,-4.386009 1.43543,2.631617 2.71134,5.342956 3.82779,8.213794 1.27592,-0.797444 2.55183,-1.59492 3.82779,-2.472116 C 163.0807,34.102231 157.8175,26.127658 150.79988,19.269563 137.80135,6.7495085 121.05478,0.44960686 104.30823,0.44960686 c 0,0 0,0 0,0 0,0 0,0 0,0 0,0 0,0 0,0 -17.464265,0 -34.8488,6.77837554 -47.927047,20.25537514 -6.140431,6.299902 -10.765662,13.476999 -13.875722,21.13257 0.877196,0.558224 1.834142,1.196198 2.870839,1.834142 0.318972,0.398723 0.637944,0.637974 0.956946,0.797476 z M 147.68981,22.618875 c 3.34931,3.18981 6.22015,6.778374 8.77199,10.526409 -3.98726,1.116418 -11.32386,2.711339 -22.40849,3.907536 -1.59489,-6.379652 -3.82778,-12.360582 -6.53913,-17.623786 -2.79108,-5.502427 -5.98092,-9.728935 -9.33023,-12.8390259 11.00488,2.5518668 21.21232,7.9745729 29.50586,16.0288669 z M 106.54112,5.3140899 c 2.47211,0.4784729 4.9442,1.59492 7.33656,3.5088125 3.58857,2.7910896 6.85814,7.0973476 9.72897,12.6795256 2.47211,4.70498 4.46576,10.127686 5.98093,16.028866 -6.53915,0.558193 -14.11498,0.956946 -22.96671,1.036697 V 5.3140899 Z m -4.46577,0 V 38.48824 C 93.223618,38.408369 85.568047,38.009767 79.108644,37.451543 80.464313,32.188338 82.298455,27.244105 84.371848,22.858096 89.316082,12.730408 95.695704,6.5102568 102.07535,5.3140899 Z M 59.570994,24.054294 C 65.551894,17.913893 72.569521,13.129161 80.464313,9.85957 83.733874,8.5039006 87.162937,7.4672036 90.592,6.6697583 86.923716,10.01907 83.494653,14.803802 80.464313,20.944203 78.071947,25.808685 76.158054,31.311143 74.722635,37.05282 63.638001,35.856623 56.301432,34.261702 52.314146,33.145284 c 2.073394,-3.189841 4.54551,-6.299902 7.256848,-9.09099 z"
       id="path20"
       style="fill:#5b5b5f;fill-opacity:1;stroke-width:0.79745525" />
    <path
       inkscape:connector-curvature="0"
       d="m 132.9369,84.262164 c 1.11641,0.398752 2.31261,0.797475 3.42903,1.196198 0.15944,-1.036697 0.23931,-1.993643 0.39875,-3.03034 -1.27595,0.558223 -2.55187,1.196197 -3.82778,1.834142 z"
       id="path22"
       style="fill:#5b5b5f;fill-opacity:1;stroke-width:0.79745525" />
    <path
       inkscape:connector-curvature="0"
       d="m 23.924725,115.04395 c 5.980932,0 13.716253,-1.19617 23.524939,-3.50882 15.311141,-3.66828 33.971595,-9.88843 53.509246,-17.942729 -1.515142,-0.637972 -3.110062,-1.275913 -4.625232,-1.913885 -3.349312,-1.435421 -6.698624,-2.791089 -10.047936,-4.306265 -13.556751,5.183459 -26.475527,9.40997 -37.639881,12.360557 -12.839025,3.269562 -20.414875,4.146752 -24.721136,4.146752 -2.153115,0 -3.508784,-0.23931 -4.38598,-0.39872 1.036666,-1.91389 5.9809,-7.735322 16.826284,-15.550361 C 34.84989,84.341915 33.892943,80.274907 33.49419,76.367372 14.27554,89.684866 5.2642705,100.61 8.6933331,108.26557 c 2.1531439,4.54551 7.0176269,6.77838 15.2313919,6.77838 z"
       id="path24"
       style="fill:#5b5b5f;fill-opacity:1;stroke-width:0.79745525" />
    <path
       inkscape:connector-curvature="0"
       d="m 112.36255,76.606593 c 4.94419,1.913893 9.80868,3.827785 14.59342,5.502457 20.25537,-9.569464 38.43734,-19.697151 52.15357,-29.027363 19.69715,-13.477 26.95399,-23.046493 23.52493,-30.781815 -1.99364,-4.54548 -6.85812,-6.778344 -15.15163,-6.778344 -5.98093,0 -15.47065,1.674641 -25.19961,4.067006 -1.43542,0.318972 -2.87084,0.717726 -4.38601,1.116448 1.9139,1.993643 5.66195,9.409962 5.98093,9.968186 11.08463,-2.711338 19.6174,-3.987287 23.60469,-3.987287 2.15311,0 3.50878,0.239312 4.38597,0.398723 -1.19616,2.232895 -5.74167,8.213795 -22.24898,19.059207 -15.07193,9.888436 -35.32727,20.733848 -57.25728,30.462782 z"
       id="path26"
       style="fill:#5b5b5f;fill-opacity:1;stroke-width:0.79745525" />
    <path
       inkscape:connector-curvature="0"
       d="m 181.02343,75.649647 c -0.79745,-0.478473 -3.90753,-2.791088 -4.70498,-3.269562 -0.55822,3.827786 -1.83414,7.575821 -3.34931,11.084634 13.79597,9.011236 20.17562,15.869369 21.37179,17.942761 -0.95695,0.23931 -2.55184,0.47848 -5.2632,0.47848 -4.46574,0 -11.88209,-0.71773 -23.92367,-3.508819 C 147.21134,94.230384 124.88257,86.734279 102.23486,77.404068 79.587117,67.994076 58.534297,57.467666 42.904184,47.738732 26.077869,37.292042 21.452637,31.390862 20.17669,29.237749 c 0.956945,-0.239313 2.631617,-0.558224 5.422706,-0.558224 3.508815,0 11.244107,0.637974 19.29843,2.232865 0.398723,-0.717696 3.827786,-7.894793 6.140402,-10.047937 -0.239313,-0.07987 -2.95059,-0.239312 -3.189842,-0.318972 -9.170711,-1.913893 -16.58706,-2.95059 -22.408492,-2.95059 -9.01124,0 -14.114943,2.392366 -16.1085869,7.177097 -3.2695619,7.894823 4.2265089,17.225065 24.2426339,30.223592 16.42759,10.68588 39.314551,22.328738 64.434407,32.695647 25.119832,10.446661 49.521962,18.421223 68.660892,22.488243 9.17074,1.99364 16.58706,2.95058 22.40849,2.95058 9.01124,0 14.11497,-2.39237 16.10861,-7.17709 3.34932,-7.974549 -4.14679,-17.304785 -24.16291,-30.303313 z"
       id="path28"
       style="fill:#5b5b5f;fill-opacity:1;stroke-width:0.79745525" />
  </g>
</svg>
